<?xml version="1.0" encoding="UTF-8" standalone="no"?>
<svg width="16px" height="16px" viewBox="0 0 16 16" version="1.1" xmlns="http://www.w3.org/2000/svg" xmlns:xlink="http://www.w3.org/1999/xlink" xmlns:sketch="http://www.bohemiancoding.com/sketch/ns">
    <!-- Generator: Sketch 3.0.4 (8053) - http://www.bohemiancoding.com/sketch -->
    <title>icon-case-done</title>
    <desc>Created with Sketch.</desc>
    <defs></defs>
    <g id="Styles&amp;Elements" stroke="none" stroke-width="1" fill="none" fill-rule="evenodd" sketch:type="MSPage">
        <g id="icon-case-done" sketch:type="MSLayerGroup" transform="translate(0.000000, 1.000000)" fill="#0B0C0C">
            <path d="M5.95198224,4.99959822 L5.38000488,5.55493164 L6.24652541,6.67766305 L6.24652541,6.67766305 C4.12190261,6.66445427 2.36469196,6.62542076 2.35152931,6.5596075 L3.5707934,12.655928 C3.59856388,12.7947804 3.85098408,13 4.0085302,13 L11.9914698,13 C12.144039,13 12.4026434,12.7887441 12.4292066,12.655928 L12.9041895,10.2810136 L15.618326,6.25695189 L15.618326,6.25695189 C15.6593154,6.47283116 15.6585852,6.70707401 15.609632,6.95183977 L14.390368,13.0481602 C14.1774867,14.1125667 13.1007504,15 11.9914698,15 L4.0085302,15 C2.90195036,15 1.82522631,14.1261316 1.60963205,13.0481602 L0.390367955,6.95183977 C0.177486658,5.88743329 0.892771196,5 1.99406028,5 L2.00000844,5 C2.00000281,4.99802765 2,4.99605463 2,4.99408095 L2,2.00591905 C2,0.886554837 2.89808055,0 4.00591905,0 L6.99408095,0 C8.11145094,0 8.99684035,0.894883426 8.99999156,2 L9.04148163,2 L7.00565354,3.97658764 C7.00532771,3.75279544 7.00250676,2 6.99408095,2 C6.99408095,2 4,1.99688938 4,2.00591905 C4,2.00591905 3.99953024,5.00038826 4.0085302,5 C4.0085302,5 4.83284297,4.99988212 5.95198224,4.99959822 Z M11.9267316,4 L13.2020668,2.4058255 C12.8650966,2.15111591 12.4455082,2 11.9914698,2 L9.39938059,2 L9.39938059,2 L10.9127576,4 L8.99999156,4 L7.00568638,4 C7.00568638,4 7.00567576,3.99184921 7.00565354,3.97658829 Z M10.9804549,10.1024669 L16.2973912,3.07007084 L15.0723058,1.92656216 L10.9804549,7.34450971 L9.09739118,4.84799379 L7.87230579,5.99150248 L10.9804549,10.1024669 Z" id="Rectangle-49" sketch:type="MSShapeGroup"></path>
        </g>
    </g>
</svg>