<?xml version="1.0" encoding="UTF-8" standalone="no"?>
<svg width="16px" height="16px" viewBox="0 0 16 16" version="1.1" xmlns="http://www.w3.org/2000/svg" xmlns:xlink="http://www.w3.org/1999/xlink" xmlns:sketch="http://www.bohemiancoding.com/sketch/ns">
    <!-- Generator: Sketch 3.0.4 (8053) - http://www.bohemiancoding.com/sketch -->
    <title>icon-case</title>
    <desc>Created with Sketch.</desc>
    <defs></defs>
    <g id="Styles&amp;Elements" stroke="none" stroke-width="1" fill="none" fill-rule="evenodd" sketch:type="MSPage">
        <g id="icon-case" sketch:type="MSLayerGroup" transform="translate(0.000000, 1.000000)" fill="#0B0C0C">
            <path d="M13.9999942,5 C13.9999981,4.9983733 14,4.99674613 14,4.9951185 L14,4.0048815 C14,2.89761602 13.0980496,2 11.9914698,2 L8.99999156,2 C8.99684035,0.894883426 8.11145094,0 6.99408095,0 L4.00591905,0 C2.89808055,0 2,0.886554837 2,2.00591905 L2,4.99408095 C2,4.99605463 2.00000281,4.99802765 2.00000844,5 L1.99406028,5 C0.892771196,5 0.177486658,5.88743329 0.390367955,6.95183977 L1.60963205,13.0481602 C1.82522631,14.1261316 2.90195036,15 4.0085302,15 L11.9914698,15 C13.1007504,15 14.1774867,14.1125667 14.390368,13.0481602 L15.609632,6.95183977 C15.8252263,5.87386843 15.1054862,5 14.0059397,5 L13.9999946,5 L13.9999942,5 Z M4.0085302,5 C3.99953024,5.00038826 4,2.00591905 4,2.00591905 C4,1.99688938 6.99408095,2 6.99408095,2 C7.00308133,2 7.00568638,4 7.00568638,4 L8.99999156,4 L11.9914698,4 C11.9956407,4 12,4.9951185 12,4.9951185 C12,4.99885719 4.0085302,5 4.0085302,5 L2.0000084,5 L4.0085302,5 Z M14.0059397,7 C13.8454025,7 13.6161537,6.72119257 13.6484707,6.5596075 L12.4292066,12.655928 C12.4026434,12.7887441 12.144039,13 11.9914698,13 L4.0085302,13 C3.85098408,13 3.59856388,12.7947804 3.5707934,12.655928 L2.35152931,6.5596075 C2.38488214,6.72637169 2.16139617,7 1.99406028,7 L14.0059397,7 Z" id="Rectangle-48" sketch:type="MSShapeGroup"></path>
        </g>
    </g>
</svg>