<?xml version="1.0" encoding="UTF-8" standalone="no"?>
<svg width="16px" height="16px" viewBox="0 0 16 16" version="1.1" xmlns="http://www.w3.org/2000/svg" xmlns:xlink="http://www.w3.org/1999/xlink" xmlns:sketch="http://www.bohemiancoding.com/sketch/ns">
    <!-- Generator: Sketch 3.0.4 (8053) - http://www.bohemiancoding.com/sketch -->
    <title>icon-Email</title>
    <desc>Created with Sketch.</desc>
    <defs></defs>
    <g id="Styles&amp;Elements" stroke="none" stroke-width="1" fill="none" fill-rule="evenodd" sketch:type="MSPage">
        <g id="icon-Email" sketch:type="MSLayerGroup" transform="translate(0.000000, 2.000000)" fill="#0B0C0C">
            <path d="M1.99406028,0 C0.892771196,0 0,0.901950359 0,2.0085302 L0,9.9914698 C0,11.1007504 0.894513756,12 1.99406028,12 L14.0059397,12 C15.1072288,12 16,11.0980496 16,9.9914698 L16,2.0085302 C16,0.899249601 15.1054862,0 14.0059397,0 L1.99406028,0 Z M3.00247329,2 C2.44882258,2 2,2.45303631 2,2.99703014 L2,9.00296986 C2,9.5536144 2.45576096,10 3.00247329,10 L12.9975267,10 C13.5511774,10 14,9.54696369 14,9.00296986 L14,2.99703014 C14,2.4463856 13.544239,2 12.9975267,2 L3.00247329,2 Z" id="Rectangle-73" sketch:type="MSShapeGroup"></path>
            <path d="M6.5742179,6.87991266 L5.16000434,5.46569909 L2.08940201,8.53630142 L3.50361557,9.95051498 L6.5742179,6.87991266 Z" id="Path-43" sketch:type="MSShapeGroup"></path>
            <path d="M7.28752474,8.70751491 L7.99422316,9.41339777 L8.70092157,8.70751491 L13.7066984,3.70751491 L12.2933016,2.29248509 L7.28752474,7.29248509 L8.70092157,7.29248509 L3.70669841,2.30402544 L2.29330159,3.71905526 L7.28752474,8.70751491 Z" id="Path-40" sketch:type="MSShapeGroup"></path>
            <path d="M10.8399957,5.46569909 L9.4257821,6.87991266 L12.4963844,9.95051498 L13.910598,8.53630142 L10.8399957,5.46569909 Z" id="Path-39" sketch:type="MSShapeGroup"></path>
        </g>
    </g>
</svg>