<?xml version="1.0" encoding="UTF-8" standalone="no"?>
<svg width="16px" height="16px" viewBox="0 0 16 16" version="1.1" xmlns="http://www.w3.org/2000/svg" xmlns:xlink="http://www.w3.org/1999/xlink" xmlns:sketch="http://www.bohemiancoding.com/sketch/ns">
    <!-- Generator: Sketch 3.0.4 (8053) - http://www.bohemiancoding.com/sketch -->
    <title>icon-no</title>
    <desc>Created with Sketch.</desc>
    <defs></defs>
    <g id="Styles&amp;Elements" stroke="none" stroke-width="1" fill="none" fill-rule="evenodd" sketch:type="MSPage">
        <g id="icon-No" sketch:type="MSLayerGroup" fill="#0B0C0C">
            <path d="M8,16 C12.418278,16 16,12.418278 16,8 C16,3.581722 12.418278,0 8,0 C3.581722,0 0,3.581722 0,8 C0,12.418278 3.581722,16 8,16 Z M9.43620378,7.99730258 L12.2805494,10.8416482 L13,11.5610988 L11.5610988,13 L10.8416482,12.2805494 L7.99730257,9.43620377 L5.15025947,12.2832468 L4.43350629,13 L3,11.5664936 L3.71675318,10.8497404 L6.56379622,8.00269742 L3.7194506,5.15835181 L3,4.4389012 L4.4389012,3 L5.15835181,3.7194506 L8.00269743,6.56379623 L10.8497405,3.71675317 L11.5664937,3 L13,4.43350642 L12.2832468,5.15025959 L9.43620378,7.99730258 L9.43620378,7.99730258 Z" id="Oval-11" sketch:type="MSShapeGroup"></path>
        </g>
    </g>
</svg>