<?xml version="1.0" encoding="UTF-8" standalone="no"?>
<svg width="16px" height="16px" viewBox="0 0 16 16" version="1.1" xmlns="http://www.w3.org/2000/svg" xmlns:xlink="http://www.w3.org/1999/xlink" xmlns:sketch="http://www.bohemiancoding.com/sketch/ns">
    <!-- Generator: Sketch 3.0.4 (8053) - http://www.bohemiancoding.com/sketch -->
    <title>icon-Organisation</title>
    <desc>Created with Sketch.</desc>
    <defs></defs>
    <g id="Styles&amp;Elements" stroke="none" stroke-width="1" fill="none" fill-rule="evenodd" sketch:type="MSPage">
        <g id="icon-Organisation" sketch:type="MSLayerGroup" fill="#0B0C0C">
            <path d="M5.00004055,10 L2,10 L2,8 L14,8 L14,10 L10.9999575,10 C10.9999858,10.0031196 11,10.0062426 11,10.0093689 L11,11.9906311 C11,12.5566468 10.5564136,13 10.009222,13 L5.99077797,13 C5.45097518,13 5,12.5480902 5,11.9906311 L5,10.0093689 C5,10.0062422 5.00001354,10.0031192 5.00004055,10 L5.00004055,10 Z M11.9999942,3 L14.0059397,3 C15.1054862,3 16,3.89666625 16,5.00276013 L16,13.9972399 C16,15.1064574 15.1072288,16 14.0059397,16 L1.99406028,16 C0.894513756,16 0,15.1033337 0,13.9972399 L0,5.00276013 C0,3.89354265 0.892771196,3 1.99406028,3 L4.00000575,3 C4.00000192,2.99837329 4,2.99674612 4,2.9951185 L4,2.0048815 C4,0.893899798 4.89458045,0 5.99810135,0 L10.0018986,0 C11.1132936,0 12,0.897616023 12,2.0048815 L12,2.9951185 C12,2.99674613 11.9999981,2.9983733 11.9999942,3 L11.9999942,3 Z M3.00247329,5 C2.44882258,5 2,5.4463114 2,5.99754465 L2,13.0024554 C2,13.553384 2.45576096,14 3.00247329,14 L12.9975267,14 C13.5511774,14 14,13.5536886 14,13.0024554 L14,5.99754465 C14,5.44661595 13.544239,5 12.9975267,5 L3.00247329,5 Z M6,2 L6,3 L10,3 L10,2 L6,2 Z M7,10 L7,11 L9,11 L9,10 L7,10 Z" id="Organisation_icon-2" sketch:type="MSShapeGroup"></path>
        </g>
    </g>
</svg>