<?xml version="1.0" encoding="UTF-8" standalone="no"?>
<svg width="16px" height="16px" viewBox="0 0 16 16" version="1.1" xmlns="http://www.w3.org/2000/svg" xmlns:xlink="http://www.w3.org/1999/xlink" xmlns:sketch="http://www.bohemiancoding.com/sketch/ns">
    <!-- Generator: Sketch 3.0.4 (8053) - http://www.bohemiancoding.com/sketch -->
    <title>icon-Search</title>
    <desc>Created with Sketch.</desc>
    <defs></defs>
    <g id="Styles&amp;Elements" stroke="none" stroke-width="1" fill="none" fill-rule="evenodd" sketch:type="MSPage">
        <g id="icon-Search" sketch:type="MSLayerGroup" transform="translate(0.000000, 1.000000)" fill="#0B0C0C">
            <path d="M6,12 C9.3137085,12 12,9.3137085 12,6 C12,2.6862915 9.3137085,0 6,0 C2.6862915,0 0,2.6862915 0,6 C0,9.3137085 2.6862915,12 6,12 Z M6,10 C8.209139,10 10,8.209139 10,6 C10,3.790861 8.209139,2 6,2 C3.790861,2 2,3.790861 2,6 C2,8.209139 3.790861,10 6,10 Z" id="Oval-12" sketch:type="MSShapeGroup"></path>
            <rect id="Rectangle-54" sketch:type="MSShapeGroup" transform="translate(11.500000, 11.500000) rotate(-45.000000) translate(-11.500000, -11.500000) " x="10" y="8" width="3" height="7"></rect>
        </g>
    </g>
</svg>