<?xml version="1.0" encoding="utf-8"?>
<!-- Generator: Adobe Illustrator 18.0.0, SVG Export Plug-In . SVG Version: 6.00 Build 0)  -->
<!DOCTYPE svg PUBLIC "-//W3C//DTD SVG 1.1//EN" "http://www.w3.org/Graphics/SVG/1.1/DTD/svg11.dtd">
<svg version="1.1" id="Layer_1" xmlns:sketch="http://www.bohemiancoding.com/sketch/ns"
	 xmlns="http://www.w3.org/2000/svg" xmlns:xlink="http://www.w3.org/1999/xlink" x="0px" y="0px" viewBox="0 0 512 512"
	 enable-background="new 0 0 512 512" xml:space="preserve">
<title>commentAdd</title>
<desc>Created with Sketch.</desc>
<g>
	<polygon fill="#0B0C0C" points="297,112 233,112 233,176 169,176 169,240 233,240 233,304 297,304 297,240 361,240 361,176 
		297,176 	"/>
	<path fill="#0B0C0C" d="M480,0H32C14.3,0,0,14.3,0,32v352c0,17.7,14.3,32,32,32h64v63.8c0,0,7.4,58.4,64.3,18
		c32.5-23.1,80.1-57,114.9-81.8H480c17.7,0,32-14.3,32-32V32C512,14.3,497.7,0,480,0z M448,320c0,17.7-14.3,32-32,32H256l-96,64v-64
		H96c-17.7,0-32-14.3-32-32V96c0-17.7,14.3-32,32-32h320c17.7,0,32,14.3,32,32V320z"/>
</g>
</svg>
