<?xml version="1.0" encoding="utf-8"?>
<!-- Generator: Adobe Illustrator 18.0.0, SVG Export Plug-In . SVG Version: 6.00 Build 0)  -->
<!DOCTYPE svg PUBLIC "-//W3C//DTD SVG 1.1//EN" "http://www.w3.org/Graphics/SVG/1.1/DTD/svg11.dtd">
<svg version="1.1" id="Layer_1" xmlns:sketch="http://www.bohemiancoding.com/sketch/ns"
	 xmlns="http://www.w3.org/2000/svg" xmlns:xlink="http://www.w3.org/1999/xlink" x="0px" y="0px" viewBox="0 0 512 512"
	 enable-background="new 0 0 512 512" xml:space="preserve">
<path fill="#0B0C0C" d="M480,64H32C14.3,64,0,78.3,0,96v320c0,17.7,14.3,32,32,32h448c17.7,0,32-14.3,32-32V96
	C512,78.3,497.7,64,480,64z M402.9,128L255.8,275.9L109.2,128H402.9z M448,352c0,17.7-14.3,32-32,32H96c-17.7,0-32-14.3-32-32V173.7
	l191.8,191.5L448,173.3V352z"/>
</svg>
