<?xml version="1.0" encoding="utf-8"?>
<!-- Generator: Adobe Illustrator 18.0.0, SVG Export Plug-In . SVG Version: 6.00 Build 0)  -->
<!DOCTYPE svg PUBLIC "-//W3C//DTD SVG 1.1//EN" "http://www.w3.org/Graphics/SVG/1.1/DTD/svg11.dtd">
<svg version="1.1" id="Layer_1" xmlns:sketch="http://www.bohemiancoding.com/sketch/ns"
	 xmlns="http://www.w3.org/2000/svg" xmlns:xlink="http://www.w3.org/1999/xlink" x="0px" y="0px" viewBox="0 0 512 512"
	 enable-background="new 0 0 512 512" xml:space="preserve">
<title>form</title>
<desc>Created with Sketch.</desc>
<g>
	<path fill="#0B0C0C" d="M480,0H32C14.3,0,0,14.3,0,32v448c0,17.7,14.3,32,32,32h448c17.7,0,32-14.3,32-32V32
		C512,14.3,497.7,0,480,0z M448,416c0,17.7-14.3,32-32,32H96c-17.7,0-32-14.3-32-32V96c0-17.7,14.3-32,32-32h320
		c17.7,0,32,14.3,32,32V416z"/>
	<rect x="224" y="128" fill="#0B0C0C" width="160" height="64"/>
	<rect x="225" y="224" fill="#0B0C0C" width="160" height="64"/>
	<rect x="128" y="128" fill="#0B0C0C" width="64" height="64"/>
	<rect x="128" y="224" fill="#0B0C0C" width="64" height="64"/>
	<rect x="128" y="320" fill="#0B0C0C" width="64" height="64"/>
</g>
</svg>
