<?xml version="1.0" encoding="utf-8"?>
<!-- Generator: Adobe Illustrator 18.0.0, SVG Export Plug-In . SVG Version: 6.00 Build 0)  -->
<!DOCTYPE svg PUBLIC "-//W3C//DTD SVG 1.1//EN" "http://www.w3.org/Graphics/SVG/1.1/DTD/svg11.dtd">
<svg version="1.1" id="Layer_1" xmlns:sketch="http://www.bohemiancoding.com/sketch/ns"
	 xmlns="http://www.w3.org/2000/svg" xmlns:xlink="http://www.w3.org/1999/xlink" x="0px" y="0px" viewBox="0 0 512 512"
	 enable-background="new 0 0 512 512" xml:space="preserve">
<title>info</title>
<desc>Created with Sketch.</desc>
<g>
	<path fill="#0B0C0C" d="M256,0C114.6,0,0,114.6,0,256s114.6,256,256,256s256-114.6,256-256S397.4,0,256,0z M256,448
		c-106,0-192-86-192-192S150,64,256,64s192,86,192,192S362,448,256,448z"/>
	<path fill="#0B0C0C" d="M327.8,142.9c-7.9-6.8-17.3-12.3-28.2-16.2s-23.1-6-36.4-6c-10,0-19.5,1-28.4,3s-17.3,4.9-25.2,8.5
		s-15.1,8-21.7,12.9s-12.6,10.3-17.9,15.9l33.3,41.8c2.8-3.2,6.1-6.4,9.9-9.5c3.7-3.1,7.8-5.9,12.3-8.3s9.3-4.4,14.5-6
		s10.9-2.3,17-2.3c4.2,0,8.1,0.5,11.7,1.6c3.6,1.1,6.7,2.7,9.3,4.9s4.7,4.8,6.3,7.8s2.3,6.5,2.3,10.3c0,5-1.4,9.8-4.2,14.2
		s-6.2,9-10.4,13.6c-4.1,4.6-8.6,9.4-13.4,14.5c-4.8,5.1-9.3,10.6-13.4,16.7s-7.6,12.7-10.4,20c-2.8,7.3-4.2,15.5-4.2,24.6v12.6
		h57.5v-4.7c0-5.4,0.7-10.3,2.1-14.6c1.4-4.3,3.3-8.4,5.7-12.1c2.4-3.7,5.1-7.2,8.3-10.5c3.2-3.3,6.5-6.5,10.1-9.8
		c6.1-5.7,11.5-11.2,16.2-16.6c4.7-5.3,8.7-10.8,12-16.4c3.3-5.6,5.7-11.4,7.4-17.6c1.7-6.2,2.5-12.9,2.5-20.2
		c0-10-2.2-19.5-6.5-28.5C341.7,157.7,335.6,149.7,327.8,142.9z"/>
	<path fill="#0B0C0C" d="M287.2,354c-3.5-3.5-7.6-6.3-12.3-8.4c-4.7-2.1-9.6-3.1-14.9-3.1c-5.3,0-10.3,1-15.1,3.1
		c-4.8,2.1-9,4.9-12.5,8.4c-3.5,3.5-6.3,7.7-8.4,12.4c-2.1,4.7-3.1,9.7-3.1,15c0,5.3,1,10.3,3.1,14.9c2.1,4.7,4.9,8.8,8.4,12.3
		c3.5,3.5,7.7,6.3,12.5,8.3s9.9,3,15.1,3c5.3,0,10.3-1,14.9-3c4.7-2,8.8-4.8,12.3-8.3c3.5-3.5,6.3-7.6,8.3-12.3c2-4.7,3-9.6,3-14.9
		c0-5.3-1-10.3-3-15C293.5,361.7,290.7,357.6,287.2,354z"/>
</g>
</svg>
