<?xml version="1.0" encoding="utf-8"?>
<!-- Generator: Adobe Illustrator 18.0.0, SVG Export Plug-In . SVG Version: 6.00 Build 0)  -->
<!DOCTYPE svg PUBLIC "-//W3C//DTD SVG 1.1//EN" "http://www.w3.org/Graphics/SVG/1.1/DTD/svg11.dtd">
<svg version="1.1" id="Layer_1" xmlns:sketch="http://www.bohemiancoding.com/sketch/ns"
	 xmlns="http://www.w3.org/2000/svg" xmlns:xlink="http://www.w3.org/1999/xlink" x="0px" y="0px" viewBox="0 0 512 512"
	 enable-background="new 0 0 512 512" xml:space="preserve">
<title>location</title>
<desc>Created with Sketch.</desc>
<g>
	<path fill="#0B0C0C" d="M256,0C150.1,0,64.3,82.5,64,184.3c0.6,129.9,192,322.9,192,322.9s191.4-193,192-322.9
		C447.7,82.5,361.9,0,256,0z M258.4,317.6c-74.7,0-135.3-58.3-135.3-130.3c0-72,60.6-130.3,135.3-130.3
		c74.8,0,135.4,58.3,135.4,130.3C393.8,259.2,333.2,317.6,258.4,317.6z"/>
	<path fill="#0B0C0C" d="M64,184.9c0-0.2,0-0.4,0-0.5c0-0.2,0-0.4,0-0.6V184.9z"/>
	<path fill="#0B0C0C" d="M448,183.7c0,0.2,0,0.4,0,0.6c0,0.2,0,0.4,0,0.5V183.7z"/>
</g>
</svg>
