<?xml version="1.0" encoding="utf-8"?>
<!-- Generator: Adobe Illustrator 18.0.0, SVG Export Plug-In . SVG Version: 6.00 Build 0)  -->
<!DOCTYPE svg PUBLIC "-//W3C//DTD SVG 1.1//EN" "http://www.w3.org/Graphics/SVG/1.1/DTD/svg11.dtd">
<svg version="1.1" id="Layer_1" xmlns:sketch="http://www.bohemiancoding.com/sketch/ns"
	 xmlns="http://www.w3.org/2000/svg" xmlns:xlink="http://www.w3.org/1999/xlink" x="0px" y="0px" viewBox="0 0 512 512"
	 enable-background="new 0 0 512 512" xml:space="preserve">
<path fill="#0B0C0C" d="M480,384c17.7,0,32-14.3,32-32V32c0-17.7-14.3-32-32-32H32C14.3,0,0,14.3,0,32v320c0,17.7,14.3,32,32,32h160
	v64H32c-17.7,0-32,14.3-32,32c0,17.7,14.3,32,32,32h448c17.7,0,32-14.3,32-32c0-17.7-14.3-32-32-32H288v-64H480z M65,288
	c-0.5,0-1-0.4-1-1V65c0-0.6,0.4-1,1-1h382c0.5,0,1,0.4,1,1v222c0,0.6-0.4,1-1,1H65z"/>
</svg>
