<?xml version="1.0" encoding="utf-8"?>
<!-- Generator: Adobe Illustrator 18.0.0, SVG Export Plug-In . SVG Version: 6.00 Build 0)  -->
<!DOCTYPE svg PUBLIC "-//W3C//DTD SVG 1.1//EN" "http://www.w3.org/Graphics/SVG/1.1/DTD/svg11.dtd">
<svg version="1.1" id="Layer_1" xmlns:sketch="http://www.bohemiancoding.com/sketch/ns"
	 xmlns="http://www.w3.org/2000/svg" xmlns:xlink="http://www.w3.org/1999/xlink" x="0px" y="0px" viewBox="0 0 512 512"
	 enable-background="new 0 0 512 512" xml:space="preserve">
<title>ni</title>
<desc>Created with Sketch.</desc>
<path fill="#0B0C0C" d="M256,0C114.6,0,0,114.6,0,256s114.6,256,256,256s256-114.6,256-256S397.4,0,256,0z M298.5,374.6h-39.6
	l-104.8-135c-10.4-13.3-18.7-25.2-26.6-36.4h-0.7c0.7,9.7,0.7,23.4,0.7,36.7v134.6H84.3V137.4h42.8L228.3,267
	c10.8,14,19.4,25.9,26.6,36.7h0.7c-0.7-12.6-0.7-27-0.7-40V137.4h43.6V374.6z M398.9,374.6h-43.2V137.4h43.2V374.6z"/>
</svg>
