<?xml version="1.0" encoding="utf-8"?>
<!-- Generator: Adobe Illustrator 18.0.0, SVG Export Plug-In . SVG Version: 6.00 Build 0)  -->
<!DOCTYPE svg PUBLIC "-//W3C//DTD SVG 1.1//EN" "http://www.w3.org/Graphics/SVG/1.1/DTD/svg11.dtd">
<svg version="1.1" id="Layer_1" xmlns:sketch="http://www.bohemiancoding.com/sketch/ns"
	 xmlns="http://www.w3.org/2000/svg" xmlns:xlink="http://www.w3.org/1999/xlink" x="0px" y="0px" viewBox="0 0 512 512"
	 enable-background="new 0 0 512 512" xml:space="preserve">
<title>print</title>
<desc>Created with Sketch.</desc>
<g>
	<path fill="#0B0C0C" d="M480,224h-32V-1H64v225H32c-17.7,0-32,14.3-32,32v224c0,17.7,14.3,32,32,32h448c17.7,0,32-14.3,32-32V256
		C512,238.3,497.7,224,480,224z M128,64h256v160H128V64z M448,416c0,17.7-14.3,32-32,32H96c-17.7,0-32-14.3-32-32v-96
		c0-17.7,14.3-32,32-32h320c17.7,0,32,14.3,32,32V416z"/>
	<rect x="128" y="336" fill="#0B0C0C" width="256" height="64"/>
</g>
</svg>
