<?xml version="1.0" encoding="utf-8"?>
<!-- Generator: Adobe Illustrator 18.0.0, SVG Export Plug-In . SVG Version: 6.00 Build 0)  -->
<!DOCTYPE svg PUBLIC "-//W3C//DTD SVG 1.1//EN" "http://www.w3.org/Graphics/SVG/1.1/DTD/svg11.dtd">
<svg version="1.1" id="Layer_1" xmlns:sketch="http://www.bohemiancoding.com/sketch/ns"
	 xmlns="http://www.w3.org/2000/svg" xmlns:xlink="http://www.w3.org/1999/xlink" x="0px" y="0px" viewBox="0 0 512 512"
	 enable-background="new 0 0 512 512" xml:space="preserve">
<title>thirdparty</title>
<desc>Created with Sketch.</desc>
<g>
	<path fill="#0B0C0C" d="M416,160C416,71.6,344.4,0,256,0S96,71.6,96,160s71.6,160,160,160S416,248.4,416,160z M256,256
		c-53,0-96-43-96-96c0-53,43-96,96-96c53,0,96,43,96,96C352,213,309,256,256,256z"/>
	<path fill="#0B0C0C" d="M256,320C114.6,320,0,370.1,0,432v80h512v-80C512,370.1,397.4,320,256,320z M68.3,445.8
		c1.3-9.6,16.1-27.3,32.3-34.4C139.7,394.3,195.6,384,256,384s116.3,10.3,155.4,27.4c16.2,7.1,34.1,22.5,34.1,32.9
		C435.9,444.4,78.2,445.8,68.3,445.8z"/>
</g>
</svg>
